<svg id="Layer_1" data-name="Layer 1" xmlns="http://www.w3.org/2000/svg" viewBox="0 0 109 99"><defs><style>.cls-1{fill:#5180ba;}</style></defs><g id="W6Aq5q.tif"><g id="Group_2846" data-name="Group 2846"><path id="Path_2095" data-name="Path 2095" class="cls-1" d="M20.89,26.84H88.25c-.47,3.83-.92,7.57-1.4,11.3q-1.81,14.51-3.64,29c-.95,7.5-1.87,15-2.84,22.49a4.4,4.4,0,0,1-4.63,4.16H33.51a4.42,4.42,0,0,1-4.83-4c0-.1,0-.2,0-.3q-2.23-17.64-4.43-35.29Q22.57,41,20.89,27.84A8.34,8.34,0,0,1,20.89,26.84ZM57,60h.07V48.84c0-3,0-6-.08-9a2.48,2.48,0,0,0-2.3-2.65h-.2A2.52,2.52,0,0,0,52,39.77V79.85a2.79,2.79,0,0,0,.28,1.65c.58.64,1.41,1.43,2.15,1.46a3.49,3.49,0,0,0,2.22-1.33A3.22,3.22,0,0,0,57,79.68C57,73.12,57,66.57,57,60ZM43.18,80.06c0-.2,0-.51-.08-.83q-2.48-19.57-4.94-39.16c-.26-2-1.23-3-2.84-2.83S33,38.75,33.22,40.8q1.55,11.93,3,23.87c.66,5.26,1.29,10.52,2,15.77.22,1.74,1.31,2.74,2.76,2.61S43.23,81.82,43.18,80.06Zm22.69.11a2.49,2.49,0,1,0,4.92.73c0-.05,0-.1,0-.15.31-1.91.5-3.84.74-5.77q2.14-17.16,4.31-34.31c.24-1.92-.52-3.23-2.1-3.43s-2.61.83-2.85,2.8q-1.52,12-3,24c-.68,5.36-1.33,10.73-2,16.09Z"/><path id="Path_2096" data-name="Path 2096" class="cls-1" d="M16.46,20.85a50.27,50.27,0,0,1,.31-5.62,4.47,4.47,0,0,1,4.8-3.46c7.2,0,14.4,0,21.59,0h3.16c0-1.42,0-2.66,0-3.9,0-1.81.8-2.65,2.55-2.66q5.67,0,11.35,0a2.25,2.25,0,0,1,2.52,2,2.81,2.81,0,0,1,0,.58c0,1.25,0,2.5,0,4H86.89c3.92,0,5.63,1.73,5.65,5.68v3.41Z"/></g></g></svg>