<svg id="Layer_1" data-name="Layer 1" xmlns="http://www.w3.org/2000/svg" viewBox="0 0 61 67"><defs><style>.cls-1{fill:#707070;}</style></defs><g id="Group_38" data-name="Group 38"><path id="Path_11" data-name="Path 11" class="cls-1" d="M52.36,16.86H44.25V8a6.78,6.78,0,0,1,.66.61q3.27,3.62,6.55,7.24a9.87,9.87,0,0,0,.9.8Z"/><path id="Path_12" data-name="Path 12" class="cls-1" d="M40.53,20.5V7.76H9.81a2.68,2.68,0,0,0-1.15,2.52c0,17.76,0,28.65,0,46.4,0,2,.52,2.51,2.45,2.51q19,0,38.09,0a3.71,3.71,0,0,0,3.12-1.15V20.5ZM19.09,25.71,28.9,15.9l.18-.13c.65.67,1.3,1.35,2,2l7.7,7.72a3.34,3.34,0,0,1,.61.79.51.51,0,0,1-.1.71.72.72,0,0,1-.2.09,3.24,3.24,0,0,1-.82.11H32.8V37.58a3.75,3.75,0,1,1-7.49.25v-.21c0-3.29,0-6.57,0-9.85V27.2H19.76c-.41,0-.87,0-1.07-.43s.1-.78.41-1.07ZM43.62,50.2H14.47a2.76,2.76,0,0,1-2.72-1.7,2.68,2.68,0,0,1,.49-3,3,3,0,0,1,2.36-.93h29a2.82,2.82,0,1,1,.3,5.63,1.13,1.13,0,0,1-.26,0Z"/></g></svg>