<svg id="Layer_1" data-name="Layer 1" xmlns="http://www.w3.org/2000/svg" viewBox="0 0 455 122"><defs><style>.cls-1,.cls-2{isolation:isolate;}.cls-2{font-size:45.1px;font-family:OpenSans-Bold, Open Sans;font-weight:700;}.cls-2,.cls-4{fill:#004f9f;}.cls-3{fill:#a7a7a7;}.cls-5{fill:#043f7b;}</style></defs><g id="Component_3_1" data-name="Component 3 1"><g id="Project_Name" data-name="Project Name"><g id="Petro_CO." data-name="Petro CO." class="cls-1"><text class="cls-2" transform="translate(217.44 77.15)">PETRO CO.</text></g></g><g id="Group_2126" data-name="Group 2126"><g id="Group_2125" data-name="Group 2125"><path id="Path_2092" data-name="Path 2092" class="cls-3" d="M23.7,27.07q3.75-.09,7.49.18h0a13.91,13.91,0,0,1,3.92,0,5.54,5.54,0,0,0,.55.14,1.18,1.18,0,0,0-.55-.14,19.6,19.6,0,0,1,3.83,0h.13a2.66,2.66,0,0,1,1.74,0,5.85,5.85,0,0,1,2.88,0h0c.57,0,.92.23,1,.51.42,1.39,1.56,2.69,1.53,4.13h0a3.27,3.27,0,0,1,.85,1.28c2.7,6,5.5,11.95,8.14,17.95a122,122,0,0,1,5.22,12,9.69,9.69,0,0,1,.78,1.15C63,68,64.72,71.8,66.47,75.56c.75.6,1-.12,1.51-.18h0c.28-.48.6-.95.83-1.44Q82.12,45.17,95.37,16.39c.4-.87.77-1.49,2.77-1.46,5.77.07,11.55.06,17.33,0,1.69,0,2.41.37,2.8,1.26q3.24,7.35,6.58,14.69c1.48,3.24,3.11,6.47,4.56,9.71,1.63,3.65,3.13,7.31,4.7,11l6.43,13.3,3-5.84h0c1.85-4.14,3.72-8.29,5.54-12.44.26-.58.68-.73,1.7-.56,3.28.55,6.57,1,9.85,1.56h0a31.35,31.35,0,0,1,5.37.8h0l.66.09c1.1.13,2.2.27,3.3.39.85.09,1.26.27,1,.83-1.43,2.9-2.81,5.81-4.2,8.71a118.74,118.74,0,0,1-5.6,12.13c-.82,1.91-1.6,3.83-2.49,5.73-2.23,4.77-4.51,9.55-6.77,14.33h0c.08,1-.55,1.51-2.52,1.48-5.94-.07-11.88-.11-17.81,0-1.75,0-2.15-.35-2.49-1.17-.89-2.2-2-4.36-2.95-6.54-1.75-4.1-4-8.13-5.38-12.27a3.16,3.16,0,0,1-.9-2h0L114.14,58,108.47,46a3.46,3.46,0,0,1-1.31-1.89c-.13-.38-.18-.77-1.17-.52h0c0,.91-1,1.65-1.37,2.49C100.37,55.37,96.06,64.68,91.77,74q-6.69,14.49-13.4,29c-.24.52-.09,1.3-1.71,1.24a30.46,30.46,0,0,1-5-.16,35.61,35.61,0,0,1-6.77,0c-2.49.34-5,0-7.51.12-.76,0-1.27-.23-1.43-.62a19.48,19.48,0,0,1-2.09-5.19h0a3.35,3.35,0,0,1-.89-1.93,4.81,4.81,0,0,1-.68-.88c-1.43-3.08-3-6.16-4.19-9.27-1-2.48-2.72-4.87-3.11-7.43h0a4.13,4.13,0,0,1-.47-.63c-3-6.48-5.89-13-8.88-19.43A12,12,0,0,0,33.2,54.5l-2,3.91h0c-1.95,4.71-4,9.39-6.5,14-.1,1.27-1.36.66-2.37.46h0L21,72.7a52.31,52.31,0,0,1-6.72-1h0a14.49,14.49,0,0,1-3.34-.49,13.14,13.14,0,0,1-3.36-.51h0l-1.33-.19c-.26-.07-.51-.15-.77-.21.22.07.47.14.77.21-1.17-.31-3.76.23-3.15-1.17,2.17-5,4.63-9.92,7-14.88a154.15,154.15,0,0,1,6.82-14.77h0c1.42-4,3.6-7.93,5.31-11.91C22.37,27.35,22.81,27,23.7,27.07Z"/><path id="Path_2093-2" data-name="Path 2093-2" class="cls-4" d="M25.06,24.62c2.64-.07,5.29,0,7.92.19h0a14.79,14.79,0,0,1,4.15,0c.2.06.39.1.58.14a1.3,1.3,0,0,0-.58-.14,20.3,20.3,0,0,1,4,0h.14a2.77,2.77,0,0,1,1.84,0,6,6,0,0,1,3,0h0c.61,0,1,.26,1.06.54.44,1.47,1.65,2.85,1.62,4.37h0a3.32,3.32,0,0,1,.89,1.35c2.87,6.33,5.82,12.64,8.61,19A131.66,131.66,0,0,1,63.9,62.75,9.89,9.89,0,0,1,64.72,64q2.79,6,5.56,11.93c.79.63,1.07-.13,1.61-.19h0c.29-.51.63-1,.87-1.53q14.05-30.4,28.07-60.84c.43-.92.82-1.57,2.93-1.54,6.11.08,12.21.07,18.32,0,1.79,0,2.55.39,3,1.32q3.42,7.78,7,15.54c1.57,3.43,3.29,6.83,4.82,10.27,1.72,3.85,3.31,7.72,5,11.58l6.8,14.06,3.15-6.17h0c2-4.39,3.93-8.77,5.86-13.15.27-.62.72-.78,1.8-.6,3.45.58,6.94,1.11,10.41,1.65h0a33.87,33.87,0,0,1,5.67.84h0l.7.11c1.17.13,2.33.28,3.49.4.9.1,1.33.3,1,.89-1.52,3.06-3,6.13-4.45,9.2a122.66,122.66,0,0,1-5.91,12.81c-.88,2-1.7,4-2.63,6.06-2.36,5.06-4.77,10.1-7.16,15.16h0c.08,1-.59,1.59-2.68,1.55-6.27-.07-12.55-.11-18.83,0-1.84,0-2.27-.37-2.62-1.25-.95-2.31-2.14-4.6-3.12-6.91-1.85-4.33-4.2-8.6-5.7-13a3.32,3.32,0,0,1-.95-2.05h0l-6-12.76-6-12.75a3.51,3.51,0,0,1-1.38-2c-.14-.4-.2-.81-1.24-.55h0c0,1-1.05,1.73-1.45,2.63-4.49,9.85-9,19.69-13.59,29.53q-7.08,15.33-14.17,30.65c-.25.55-.09,1.37-1.8,1.31a32.84,32.84,0,0,1-5.34-.17,37.34,37.34,0,0,1-7.17,0c-2.63.36-5.3,0-7.94.13a1.46,1.46,0,0,1-1.51-.66,20.11,20.11,0,0,1-2.2-5.49h0a3.46,3.46,0,0,1-.95-2A5.84,5.84,0,0,1,55.2,97c-1.51-3.27-3.12-6.51-4.43-9.8-1-2.63-2.87-5.15-3.29-7.86h0a4,4,0,0,1-.49-.67C43.86,71.85,40.76,65,37.6,58.15a12.6,12.6,0,0,0-2.5-4.53l-2.16,4.13h0c-2.07,5-4.28,9.92-6.88,14.82-.1,1.34-1.43.7-2.49.49h0l-1.42-.21a53.13,53.13,0,0,1-7.09-1h0a15.52,15.52,0,0,1-3.53-.52A14.73,14.73,0,0,1,8,70.77H8l-1.4-.2-.81-.24c.24.08.5.16.81.24-1.23-.34-4,.23-3.32-1.25,2.29-5.26,4.89-10.48,7.38-15.72A163.49,163.49,0,0,1,17.86,38h0c1.48-4.24,3.78-8.38,5.59-12.59C23.66,24.92,24.12,24.59,25.06,24.62Z"/></g><path id="Path_2094-2" data-name="Path 2094-2" class="cls-5" d="M100.82,13.34c.43-.92.82-1.58,2.94-1.54,6.1.07,12.21.06,18.31,0,1.79,0,2.55.38,3,1.32q3.4,7.77,7,15.53c1.56,3.43,3.28,6.84,4.81,10.27,1.73,3.86,3.31,7.72,5,11.59l6.8,14.06,3.15-6.18h0c2-4.38,3.94-8.76,5.86-13.15.27-.61.72-.77,1.8-.59,3.46.57,6.94,1.1,10.41,1.65h0a31.93,31.93,0,0,1,5.67.84h0l.71.1,3.49.41c.89.1,1.32.29,1,.88-1.52,3.07-3,6.14-4.45,9.2a123.78,123.78,0,0,1-5.91,12.82c-.87,2-1.69,4.05-2.63,6.06-2.36,5.05-4.77,10.1-7.16,15.16h0c.08,1-.58,1.58-2.68,1.55-6.27-.07-12.55-.12-18.83,0-1.84,0-2.26-.37-2.62-1.24-.95-2.31-2.13-4.6-3.12-6.92-1.84-4.33-4.19-8.59-5.69-13a3.33,3.33,0,0,1-1-2.06h0l-6-12.75-6-12.75a3.68,3.68,0,0,1-1.38-2c-.14-.4-.19-.82-1.23-.55h0c0,1-1.05,1.73-1.46,2.62-4.49,9.86-13.12,28.63-17.66,38.47C88.21,93.37,99.84,65.93,100.82,13.34Z"/></g></g></svg>