<svg id="Layer_1" data-name="Layer 1" xmlns="http://www.w3.org/2000/svg" viewBox="0 0 109 99"><defs><style>.cls-1{fill:#004f9f;}</style></defs><g id="Gs2Xpx.tif"><g id="Group_9" data-name="Group 9"><path id="Path_13" data-name="Path 13" class="cls-1" d="M82,81.93A6.76,6.76,0,0,1,79.31,80Q73.67,74.34,68,68.67a4.81,4.81,0,0,1-.44-.57,28.11,28.11,0,0,1-24.44,4.74A27.43,27.43,0,0,1,26.9,61.27a28.38,28.38,0,1,1,46.28,1.19l.45.48L84.82,74.13A7.49,7.49,0,0,1,86.92,77v1.65c-.18.47-.39.92-.61,1.37a4.36,4.36,0,0,1-2.69,1.92ZM50.42,65.72A20.26,20.26,0,1,0,30.18,45.44h0A20.3,20.3,0,0,0,50.42,65.72Z"/></g></g></svg>