<svg id="Layer_1" data-name="Layer 1" xmlns="http://www.w3.org/2000/svg" viewBox="0 0 109 99"><defs><style>.cls-1{fill:#313131;}</style></defs><g id="EzX6Qb"><g id="Group_2" data-name="Group 2"><path id="Path_2" data-name="Path 2" class="cls-1" d="M99,49.53A44.47,44.47,0,1,1,54.53,5h0A44.59,44.59,0,0,1,99,49.53ZM20.46,69l.13.24A39.18,39.18,0,0,0,62.64,87.86,38.77,38.77,0,0,0,87.7,70.33c1-1.53,1-1.53-.45-2.69A14.12,14.12,0,0,0,81.79,65c-3.62-.94-7.26-1.79-10.89-2.69a19.12,19.12,0,0,1-5.19-1.84A3.43,3.43,0,0,1,64,58.76a5.08,5.08,0,0,1,.33-4.84c.29-.41.58-.81.85-1.23a20.9,20.9,0,0,0,3.17-8,.8.8,0,0,1,.27-.53,5.3,5.3,0,0,0,1.74-2,11.81,11.81,0,0,0,1.49-5.11,5.06,5.06,0,0,0-.72-3.42.61.61,0,0,1-.07-.35c0-1.72,0-3.45-.17-5.15a13.38,13.38,0,0,0-2.66-7,17.58,17.58,0,0,0-20-5.4,15.72,15.72,0,0,0-7.95,6.16A18.32,18.32,0,0,0,37.89,33a2.58,2.58,0,0,1-.19.83,8.46,8.46,0,0,0-.47,1.45,10.77,10.77,0,0,0,1.58,7.13,11.67,11.67,0,0,0,1.54,1.68,1.08,1.08,0,0,1,.28.47c.15.64.24,1.3.41,1.93a21.77,21.77,0,0,0,3.51,7.23A4,4,0,0,1,45.4,56a4.13,4.13,0,0,1-2.14,4.49,17.65,17.65,0,0,1-3.19,1.3c-3.5.92-7,1.72-10.53,2.59a22.83,22.83,0,0,0-6.6,2.45A8.42,8.42,0,0,0,20.48,69Z"/></g></g></svg>